<?xml version="1.0" encoding="UTF-8"?>
<svg id="Layer_1" xmlns="http://www.w3.org/2000/svg" version="1.1" viewBox="0 0 714.38 834.37">
  <!-- Generator: Adobe Illustrator 30.0.0, SVG Export Plug-In . SVG Version: 2.1.1 Build 123)  -->
  <path d="M407.48,6.07l-50,57.98c71.06-24.02,146.95-18.14,218,2.51,24.46,7.11,48.79,16.43,70.97,28.99-55.35,59.68-102.04,126.54-143.47,196.51.76-15.33,5.08-30.92,4.49-46.49-3.12-83.6-116.56-129.85-183.66-90.68-51.16,29.86-22.19,73.47,13.95,99.39,45.55,32.68,104.29,59.94,153.39,88.61,73.62,42.98,187.46,107.67,201.17,199.83,8.01,53.84-16.63,97.8-55.83,132.34,12.96-27.82,21.87-56.2,15.7-87.2-9.95-49.95-50.03-90.79-98.96-116.1-32.17-16.64-69.32-27.77-104.74-35.68l27.67,11.81c66.83,32.33,162.63,103.76,141.19,193.18-13.71,57.19-93.11,90.11-146.03,111.69-45.47,18.54-79.72,22.56-101.94,74.87-21.11-53.25-53.21-64.2-105.47-86.62-60.95-26.16-120.24-49.98-176.34-85.52-22.36-14.17-51.6-33.26-70.1-51.9-1.06-1.07-2.35-1.73-1.97-3.52,34.9,9.86,69.94,19.91,105.99,24.99-8.82-6.32-17.77-12.25-25.03-20.46-55.9-63.35,22.97-139.41,76.52-170.54l-9.96,19.04c-30.14,72.94,71.82,136.08,125.45,163.49,48.54,24.81,113.14,52.48,164.33,19.29,29.83-19.34,38.23-51.73,20.5-83.11-23.24-41.15-108.32-86.11-150.78-108.22-76.06-39.61-155.39-73.13-233.02-109.49.19-1.54,1.44-1.58,2.59-1.89,10.24-2.79,22.83-3.18,33.4-5.1l-13.8-19.69c-28.14-46.71-16.4-94.07,17.8-133.31-25.06,87.24,36.75,149.31,134.01,167.99l-35.95-25.99c-44.21-31.75-86.02-66.34-75.94-123.19,10.44-58.88,94-109.07,143.01-134.19,37.01-18.97,75.1-36.28,112.88-53.61Z"/>
</svg>